<?xml version="1.0" encoding="UTF-8"?>
<svg width="512px" height="546px" viewBox="0 0 512 546" version="1.1" xmlns="http://www.w3.org/2000/svg" xmlns:xlink="http://www.w3.org/1999/xlink">
    <!-- Generator: Sketch 62 (91390) - https://sketch.com -->
    <title>White-Microscope-V2</title>
    <desc>Created with Sketch.</desc>
    <g id="Page-1" stroke="none" stroke-width="1" fill="none" fill-rule="evenodd">
        <g id="White-Microscope-V2" fill-rule="nonzero">
            <g id="Capa_2" fill="#000000">
                <rect id="Rectangle" x="0" y="0" width="512" height="546"></rect>
            </g>
            <g id="Layer_1" transform="translate(64.000000, 5.000000)" fill="#FFFFFF" stroke="#FFFFFF" stroke-width="1.0006">
                <path d="M358.2,440.428016 C374.8,412.952335 384,382.106031 384,349.625486 C384,274.041829 337.3,208.570039 267.6,184.669261 C258.2,169.143969 242.8,158.0107 224.7,154.640078 L234.7,134.212062 C237.3,128.798638 235.2,122.261673 229.9,119.606031 L239.4,100.097276 C244.7,102.752918 251.1,100.607977 253.7,95.1945525 L276.2,49.3336576 C278.8,43.9202335 276.7,37.3832685 271.4,34.7276265 L207.4,2.04280156 C202.1,-0.612840467 195.7,1.53210117 193.1,6.94552529 L170.6,52.8064202 C168,58.2198444 170.1,64.7568093 175.4,67.4124514 L165.9,86.9212062 C160.6,84.2655642 154.2,86.4105058 151.6,91.82393 L65.1,268.424125 C62.5,273.837549 64.6,280.374514 69.9,283.030156 L133.9,315.714981 C135.4,316.532101 137.1,316.838521 138.7,316.838521 C142.6,316.838521 146.4,314.59144 148.3,310.812257 L170,266.483463 C181.4,277.310311 196.6,284.153696 213.4,284.153696 C227.4,284.153696 240.3,279.455253 250.8,271.590467 C280,286.196498 298.7,316.021401 298.7,349.523346 C298.7,397.631323 260.4,436.648833 213.4,436.648833 L128,436.648833 L128,414.892996 L160,414.892996 C165.9,414.892996 170.7,409.990272 170.7,403.964008 C170.7,397.937743 165.9,393.2393 160,393.2393 L117.3,393.2393 L53.3,393.2393 L10.7,393.2393 C4.8,393.2393 0,398.142023 0,404.168288 C0,410.194553 4.8,415.097276 10.7,415.097276 L42.7,415.097276 L42.7,436.853113 C19.2,436.853113 0,456.361868 0,480.466926 L0,513.151751 C0,519.178016 4.8,524.080739 10.7,524.080739 L373.4,524.080739 C379.3,524.080739 384.1,519.178016 384.1,513.151751 L384.1,480.466926 C384,462.490272 373.4,447.169261 358.2,440.428016 Z M149.3,218.886187 C149.3,228.895914 151.7,238.292802 155.7,246.872568 L133.9,291.507782 L89,268.526265 L165.9,111.434825 C171.2,114.090467 177.6,111.945525 180.2,106.532101 L199.3,67.5145914 C201.9,62.1011673 199.8,55.5642023 194.5,52.9085603 L207.4,26.5564202 L252.3,49.5379377 L239.4,75.8900778 C234.1,73.2344358 227.7,75.3793774 225.1,80.7928016 L206,119.708171 C203.4,125.121595 205.5,131.65856 210.8,134.314202 L200.8,154.844358 C171.5,160.870623 149.3,187.222763 149.3,218.886187 Z M213.3,262.5 C189.8,262.5 170.6,242.991245 170.6,218.886187 C170.6,194.781128 189.7,175.272374 213.3,175.272374 C236.9,175.272374 256,194.781128 256,218.886187 C256,242.991245 236.9,262.5 213.3,262.5 Z M320,349.625486 C320,310.097276 299.3,274.552529 266.4,255.350195 C273.3,244.931907 277.3,232.368677 277.3,218.886187 C277.3,216.434825 276.8,214.085603 276.6,211.634241 C328.7,236.45428 362.6,289.36284 362.6,349.625486 C362.6,381.08463 353,411.011673 335.2,436.750973 L276.6,436.750973 C302.8,416.935798 320,385.374514 320,349.625486 Z M64,414.995136 L106.7,414.995136 L106.7,436.750973 L64,436.750973 L64,414.995136 Z M362.7,502.222763 L21.3,502.222763 L21.3,480.466926 C21.3,468.414397 30.9,458.711089 42.6,458.711089 L53.3,458.711089 L117.3,458.711089 L341.3,458.711089 C353.1,458.711089 362.6,468.516537 362.6,480.466926 L362.6,502.222763 L362.7,502.222763 Z" id="Shape"></path>
            </g>
        </g>
    </g>
</svg>